<svg width="48" height="59.99999999999999" xmlns="http://www.w3.org/2000/svg" data-name="Layer 1">
 <title>waffle dessert snack sweet bakery</title>

 <g>
  <title>Layer 1</title>
  <path id="svg_1" d="m37,6l-26,0a5.0059,5.0059 0 0 0 -5,5l0,26a5.0059,5.0059 0 0 0 5,5l26,0a5.0059,5.0059 0 0 0 5,-5l0,-26a5.0059,5.0059 0 0 0 -5,-5zm3,31a3.0033,3.0033 0 0 1 -3,3l-26,0a3.0033,3.0033 0 0 1 -3,-3l0,-26a3.0033,3.0033 0 0 1 3,-3l26,0a3.0033,3.0033 0 0 1 3,3l0,26z"/>
  <path id="svg_2" d="m17,10l-6,0a1,1 0 0 0 -1,1l0,6a1,1 0 0 0 1,1l6,0a1,1 0 0 0 1,-1l0,-6a1,1 0 0 0 -1,-1zm-1,6l-4,0l0,-4l4,0l0,4z"/>
  <path id="svg_3" d="m27,10l-6,0a1,1 0 0 0 -1,1l0,6a1,1 0 0 0 1,1l6,0a1,1 0 0 0 1,-1l0,-6a1,1 0 0 0 -1,-1zm-1,6l-4,0l0,-4l4,0l0,4z"/>
  <path id="svg_4" d="m37,10l-6,0a1,1 0 0 0 -1,1l0,6a1,1 0 0 0 1,1l6,0a1,1 0 0 0 1,-1l0,-6a1,1 0 0 0 -1,-1zm-1,6l-4,0l0,-4l4,0l0,4z"/>
  <path id="svg_5" d="m17,20l-6,0a1,1 0 0 0 -1,1l0,6a1,1 0 0 0 1,1l6,0a1,1 0 0 0 1,-1l0,-6a1,1 0 0 0 -1,-1zm-1,6l-4,0l0,-4l4,0l0,4z"/>
  <path id="svg_6" d="m27,20l-6,0a1,1 0 0 0 -1,1l0,6a1,1 0 0 0 1,1l6,0a1,1 0 0 0 1,-1l0,-6a1,1 0 0 0 -1,-1zm-1,6l-4,0l0,-4l4,0l0,4z"/>
  <path id="svg_7" d="m37,20l-6,0a1,1 0 0 0 -1,1l0,6a1,1 0 0 0 1,1l6,0a1,1 0 0 0 1,-1l0,-6a1,1 0 0 0 -1,-1zm-1,6l-4,0l0,-4l4,0l0,4z"/>
  <path id="svg_8" d="m17,30l-6,0a1,1 0 0 0 -1,1l0,6a1,1 0 0 0 1,1l6,0a1,1 0 0 0 1,-1l0,-6a1,1 0 0 0 -1,-1zm-1,6l-4,0l0,-4l4,0l0,4z"/>
  <path id="svg_9" d="m27,30l-6,0a1,1 0 0 0 -1,1l0,6a1,1 0 0 0 1,1l6,0a1,1 0 0 0 1,-1l0,-6a1,1 0 0 0 -1,-1zm-1,6l-4,0l0,-4l4,0l0,4z"/>
  <path id="svg_10" d="m37,30l-6,0a1,1 0 0 0 -1,1l0,6a1,1 0 0 0 1,1l6,0a1,1 0 0 0 1,-1l0,-6a1,1 0 0 0 -1,-1zm-1,6l-4,0l0,-4l4,0l0,4z"/>
  <text id="svg_12" font-family="'Helvetica Neue', Helvetica, Arial-Unicode, Arial, Sans-serif" font-weight="bold" font-size="5px" fill="#000000" y="68" x="0">from the Noun Project</text>
 </g>
</svg>